<?xml version="1.0" encoding="utf-8"?>
<!-- Generator: Adobe Illustrator 16.0.0, SVG Export Plug-In . SVG Version: 6.00 Build 0)  -->
<!DOCTYPE svg PUBLIC "-//W3C//DTD SVG 1.1//EN" "http://www.w3.org/Graphics/SVG/1.1/DTD/svg11.dtd">
<svg version="1.1" id="Layer_1" xmlns="http://www.w3.org/2000/svg" xmlns:xlink="http://www.w3.org/1999/xlink" x="0px" y="0px"
	 width="14px" height="14px" viewBox="0 0 14 14" enable-background="new 0 0 14 14" xml:space="preserve">
<path fill="#C75757" d="M7,0.5C3.413,0.5,0.5,3.413,0.5,7c0,3.582,2.913,6.5,6.5,6.5c3.582,0,6.5-2.918,6.5-6.5
	C13.5,3.413,10.582,0.5,7,0.5z M10.303,7.959c0,0-0.686-0.179-0.926-0.179c-0.234,0-0.438,0.025-1.481,0.393
	c-1.206,0.43-1.46,0.715-2.577,0.715c-1.041,0-1.79-0.879-1.79-0.879l0.253-2.26c0,0,0.788,0.583,1.677,0.583
	c0.863,0,2.54-1.219,3.761-1.219c1.135,0,1.236,0.355,1.236,0.355C10.502,5.8,10.303,7.959,10.303,7.959z"/>
</svg>
